PathFileType	4	(X/Y/Z)	C:\Users\Basilio\Documents\Thesis Gigler\squatting_fais\c3dfiles\047\SLS_pre_front2\markers_experimental.trc
DataRate	CameraRate	NumFrames	NumMarkers	Units	OrigDataRate	OrigDataStartFrame	OrigNumFrames
200.000000	200.000000	4	60	mm	200.000000	314	1258
Frame#	Time	FHD			LBHD			RBHD			C7			T10			CLAV			LSHO			LUUPA			LMUPA			LDUPA			LLEP			LMEP			LRAD			LUL			LRFIN			RSHO			RUPA1			RMUPA			RDUPA			RLEP			RMEP			RRAD			RUL			RUFIN			LASI			RASI			USACR			LSACR			RSACR			LTHI1			LTHI2			LTHI3			LTHI4			LLFC			LMFC			LTIB1			LTIB2			LTIB3			LTIB4			LLMAL			LMMAL			LMT1			LMT2			LMT5			RTHI			RTHI2			RTHI3			RTHI4			RLFC			RMFC			RTIB1			RTIB2			RTIB3			RTIB4			RLMAL			RMMAL			RHEE			RMT1			RMT2			RMT5			
		X1	Y1	Z1	X2	Y2	Z2	X3	Y3	Z3	X4	Y4	Z4	X5	Y5	Z5	X6	Y6	Z6	X7	Y7	Z7	X8	Y8	Z8	X9	Y9	Z9	X10	Y10	Z10	X11	Y11	Z11	X12	Y12	Z12	X13	Y13	Z13	X14	Y14	Z14	X15	Y15	Z15	X16	Y16	Z16	X17	Y17	Z17	X18	Y18	Z18	X19	Y19	Z19	X20	Y20	Z20	X21	Y21	Z21	X22	Y22	Z22	X23	Y23	Z23	X24	Y24	Z24	X25	Y25	Z25	X26	Y26	Z26	X27	Y27	Z27	X28	Y28	Z28	X29	Y29	Z29	X30	Y30	Z30	X31	Y31	Z31	X32	Y32	Z32	X33	Y33	Z33	X34	Y34	Z34	X35	Y35	Z35	X36	Y36	Z36	X37	Y37	Z37	X38	Y38	Z38	X39	Y39	Z39	X40	Y40	Z40	X41	Y41	Z41	X42	Y42	Z42	X43	Y43	Z43	X44	Y44	Z44	X45	Y45	Z45	X46	Y46	Z46	X47	Y47	Z47	X48	Y48	Z48	X49	Y49	Z49	X50	Y50	Z50	X51	Y51	Z51	X52	Y52	Z52	X53	Y53	Z53	X54	Y54	Z54	X55	Y55	Z55	X56	Y56	Z56	X57	Y57	Z57	X58	Y58	Z58	X59	Y59	Z59	X60	Y60	Z60	

315	1.57	-191.8607177734375	1699.440063476563	-1086.282348632813	-368.7339782714844	1674.928100585938	-1125.153930664063	-355.8848266601563	1681.727661132813	-977.7489013671877	-410.956756591797	1497.24951171875	-1046.875	-432.0576171875001	1185.684326171875	-1016.73291015625	-252.4653472900391	1449.421875	-1064.522338867188	-331.4044189453126	1478.748779296875	-1208.816650390625	-230.4550781250001	1413.611694335938	-1330.738403320313	-205.5249328613282	1455.87744140625	-1321.914306640625	-164.6044464111328	1423.9306640625	-1351.936767578125	-103.1240997314453	1446.881713867188	-1366.61083984375	-75.71810913085939	1388.414794921875	-1319.42724609375	165.919677734375	1469.423828125	-1348.449340820313	148.7870788574219	1484.808349609375	-1422.674438476563	245.5925598144532	1499.062377929688	-1376.251831054688	-306.3572387695313	1501.552612304688	-918.1608886718752	-172.816146850586	1442.722900390625	-809.0402832031252	-146.146469116211	1476.777465820313	-833.732604980469	-102.886947631836	1441.207275390625	-810.8193969726565	-35.63745880126954	1454.69873046875	-821.859558105469	-28.41880226135255	1386.929809570313	-866.8369140625002	223.2218475341797	1454.148681640625	-898.1805419921877	220.9748229980469	1470.137817382813	-826.7366943359377	306.6610412597657	1473.196166992188	-891.0126953125002	-260.5236206054688	960.0620727539065	-1100.29443359375	-258.2905578613282	996.8929443359377	-874.9877929687502	-444.9104919433595	1044.26611328125	-998.071960449219	-446.7650146484376	1009.914428710938	-1023.775573730469	-448.5894470214845	1016.286193847656	-965.4843750000002	-312.8334350585938	796.929382324219	-1169.42236328125	-257.1928405761719	733.1812133789064	-1172.169799804688	-212.1595458984376	749.6084594726564	-1163.051391601563	-268.9854125976563	673.2690429687501	-1169.707153320313	-243.7591857910157	505.9713134765626	-1132.145874023438	-199.7975616455079	504.8329162597657	-1014.843811035156	-230.1842803955079	328.7632751464844	-1026.0244140625	-252.4869689941407	279.3626403808594	-1095.240600585938	-232.2456359863282	277.1600646972657	-1052.698608398438	-262.0227355957032	207.9003448486329	-1015.248657226563	-331.2175598144532	118.1896667480469	-1052.772705078125	-304.5939025878907	140.3453826904297	-968.4045410156252	-190.6193237304688	64.67469024658205	-980.6397705078127	-188.2396697998047	59.65568161010744	-1025.189453125	-237.5255889892579	43.13110733032227	-1069.649780273438	-244.1506652832032	844.507995605469	-770.4802246093752	-177.1508026123047	841.3967285156252	-775.4248657226565	-159.4119110107422	866.3134765625002	-786.775817871094	-130.6669006347657	771.637634277344	-778.6797485351565	-11.37045288085938	688.5148315429689	-800.8186035156252	2.579355716705323	690.0110473632814	-923.3907470703127	97.34794616699222	613.2977294921876	-820.8487548828127	104.2837295532227	513.8175659179689	-773.9412841796877	136.6414184570313	539.3957519531251	-796.5393066406252	170.2400054931641	505.6976928710939	-829.4838867187502	216.5185241699219	352.8312377929688	-789.9124755859377	221.7086639404297	370.7064514160157	-880.4844970703127	181.7371063232422	289.8470764160157	-833.0233154296877	368.6708679199219	374.4426269531251	-876.9326171875002	373.6361694335938	387.1868286132814	-834.9683837890627	350.9478759765626	347.3618774414063	-773.1491699218752	
316	1.575	-190.8189697265625	1698.803588867188	-1088.033569335938	-367.6500549316407	1673.711303710938	-1125.643920898438	-355.2859802246094	1680.909545898438	-977.686462402344	-410.4424743652345	1496.57470703125	-1047.1875	-431.9984130859376	1185.120849609375	-1016.600341796875	-251.5700683593751	1448.0830078125	-1064.858032226563	-330.8785705566407	1477.9208984375	-1209.068603515625	-229.9424438476563	1412.56640625	-1331.0439453125	-204.9588165283204	1454.857543945313	-1322.380126953125	-164.2878723144532	1422.893310546875	-1352.381958007813	-103.9193267822266	1446.51416015625	-1366.722534179688	-75.19495391845705	1387.444702148438	-1319.763793945313	166.1238555908203	1468.291259765625	-1348.897338867188	149.2245483398438	1483.603271484375	-1423.045043945313	245.7574615478516	1497.924438476563	-1376.710815429688	-305.8067932128907	1500.87548828125	-918.5191650390627	-172.0073852539063	1442.147094726563	-809.7836914062502	-145.722396850586	1476.199584960938	-834.515319824219	-102.4700622558594	1440.532104492188	-811.3735351562502	-35.21446228027344	1453.79833984375	-821.6273193359377	-27.87388992309571	1385.918701171875	-867.5635986328127	219.7646179199219	1451.447631835938	-895.2395019531252	221.739242553711	1469.336059570313	-827.0762939453127	307.3992004394532	1471.654174804688	-891.586608886719	-261.2400817871094	959.0324707031252	-1100.205932617188	-258.9012756347657	996.1610107421877	-874.8333129882815	-445.3132324218751	1043.65087890625	-997.779968261719	-446.7712707519532	1009.425415039063	-1023.425842285156	-449.0683593750001	1015.724670410156	-965.0960083007815	-313.3311157226563	795.9595336914065	-1169.23095703125	-257.7012023925782	733.0881958007814	-1172.137451171875	-212.3442535400391	749.3432617187501	-1162.8623046875	-268.7162780761719	672.8242187500001	-1169.756713867188	-243.1524200439454	506.026580810547	-1132.244262695313	-198.9489898681641	504.4978027343751	-1015.109802246094	-229.6376953125001	328.5296325683594	-1026.189575195313	-251.9633789062501	279.1673583984376	-1095.426025390625	-231.7648162841797	276.8071289062501	-1052.76806640625	-261.8615417480469	207.8167877197266	-1015.315979003906	-331.1232299804688	118.2261505126953	-1052.951782226563	-304.4260864257813	140.4179077148438	-968.6442871093752	-190.7403564453125	64.64840698242189	-980.746276855469	-188.1977081298828	59.63609313964845	-1025.254150390625	-237.4349975585938	43.09238052368165	-1069.77783203125	-244.6511840820313	843.7182617187502	-770.2301025390627	-177.5657196044922	840.548278808594	-774.2692871093752	-159.8104705810547	865.7298583984377	-786.5965576171877	-131.2087097167969	770.6182861328127	-778.8236083984377	-12.01700401306153	687.6690063476564	-800.5044555664065	2.465246200561524	689.3213500976564	-923.3753051757815	96.50805664062503	612.4548950195314	-820.3874511718752	103.8922119140625	513.0203857421876	-773.995300292969	135.9409637451172	538.8546142578126	-795.1218261718752	169.7838134765625	504.9716186523439	-829.574645996094	216.0796966552735	352.0343017578126	-789.8073730468752	221.1134185791016	369.9972229003907	-880.3353271484377	180.8411560058594	289.2332153320313	-832.6950683593752	367.7118225097657	373.6902465820313	-876.5053710937502	373.3643798828126	386.4017944335939	-834.8425903320315	350.5623474121094	346.7951660156251	-772.6881103515627	
317	1.58	-190.4351806640625	1697.500244140625	-1088.044311523438	-367.4197082519532	1673.222412109375	-1125.952758789063	-354.5336303710938	1679.88623046875	-978.290466308594	-409.828582763672	1495.923095703125	-1047.538940429688	-431.5235290527345	1184.87109375	-1016.51220703125	-251.2970275878907	1447.290771484375	-1065.208129882813	-330.2514038085938	1476.946044921875	-1209.337890625	-229.4911346435547	1411.459716796875	-1331.255737304688	-204.4159545898438	1453.78271484375	-1322.636840820313	-163.9386444091797	1421.99755859375	-1352.47998046875	-103.1240844726563	1445.155639648438	-1367.102416992188	-74.70333862304689	1386.33984375	-1320.27392578125	166.7127990722657	1467.198852539063	-1349.336181640625	149.5663604736328	1482.460205078125	-1423.503051757813	245.9320678710938	1496.7890625	-1376.741333007813	-305.1346740722657	1499.9482421875	-918.9917602539065	-171.3674774169922	1441.278686523438	-810.0657348632815	-145.0940856933594	1475.0048828125	-834.4002075195315	-102.0155944824219	1439.645629882813	-811.4995117187502	-34.54240798950196	1452.965454101563	-822.0906372070315	-27.23144340515137	1384.963134765625	-867.977966308594	220.4025573730469	1450.04296875	-895.7185058593752	222.0242767333985	1467.900634765625	-827.5538330078127	307.6997375488282	1470.260986328125	-891.9475708007815	-260.4318542480469	958.2291259765627	-1100.098022460938	-259.2828369140626	995.4700927734377	-874.6583251953127	-445.7112426757814	1043.09033203125	-997.442321777344	-447.4953918457032	1008.722045898438	-1023.116577148438	-449.6293029785157	1015.215698242188	-964.6792602539065	-313.3675231933594	795.4326782226565	-1169.24267578125	-257.5749816894532	732.6965332031251	-1172.099243164063	-212.2831268310547	749.1650390625001	-1162.786499023438	-268.4760437011719	672.4432373046876	-1169.8203125	-241.9544982910157	505.6371459960939	-1132.532958984375	-197.9790954589844	504.1702880859376	-1015.182861328125	-228.8383331298829	328.4603881835938	-1026.53955078125	-251.4770202636719	278.8851318359376	-1095.580444335938	-231.6638641357422	276.9335632324219	-1052.934326171875	-261.1526184082032	207.5521697998047	-1015.693786621094	-331.0001220703126	118.1577529907227	-1053.206665039063	-304.2114562988282	140.5634918212891	-968.912048339844	-190.5622253417969	64.91326904296876	-980.8687744140627	-188.2192840576172	59.5466995239258	-1025.296630859375	-237.4046020507813	43.01164627075196	-1069.816040039063	-245.1217498779297	842.820251464844	-770.4060668945315	-178.0860748291016	839.7258300781252	-774.1318359375002	-160.291488647461	864.6107177734377	-786.6421508789065	-131.6458282470703	769.9949340820315	-778.5402832031252	-12.52623748779297	686.8858642578126	-800.2962036132815	1.946102261543274	688.4192504882814	-923.5439453125002	96.12649536132815	611.7568359375001	-820.2156372070315	103.1237335205078	512.4017333984376	-773.0574951171877	135.2129516601563	538.1763916015626	-794.7015380859377	169.2848358154297	504.2709045410157	-829.1563720703127	215.3195343017579	351.2072753906251	-789.4039306640627	220.4085235595704	369.0923156738282	-879.8626708984377	180.7825469970703	288.0754699707032	-832.9007568359377	367.1835632324219	372.6938476562501	-876.2119140625002	372.7880859375001	385.4432983398439	-834.5399169921877	350.2255859375001	346.1755676269532	-772.2869873046877	
318	1.585	-189.5710754394532	1696.473022460938	-1088.567749023438	-366.1866760253907	1671.854736328125	-1126.523681640625	-353.7158813476563	1679.042358398438	-978.8475341796877	-409.2126464843751	1495.140014648438	-1047.909545898438	-432.2309570312501	1183.858276367188	-1016.457824707031	-251.0445098876954	1446.348510742188	-1065.491821289063	-329.5995483398438	1475.958374023438	-1209.815307617188	-228.9059448242188	1410.373779296875	-1331.648315429688	-203.8853759765626	1452.673095703125	-1322.913818359375	-163.6033630371094	1420.8603515625	-1352.824096679688	-102.5948715209961	1443.994506835938	-1367.635498046875	-74.26622772216798	1385.150756835938	-1320.355346679688	167.7555541992188	1466.207641601563	-1349.77294921875	149.9830474853516	1481.232055664063	-1423.81103515625	246.927230834961	1495.510009765625	-1377.510498046875	-304.5687866210938	1499.042236328125	-919.3162841796877	-171.0597686767578	1440.36669921875	-810.4960937500002	-144.3195495605469	1474.211059570313	-834.8742675781252	-101.2398223876953	1438.6875	-812.134460449219	-33.96242141723634	1451.61669921875	-822.794372558594	-26.63430786132813	1383.920166015625	-868.1464843750002	220.8311004638672	1448.804809570313	-896.0207519531252	222.8506011962891	1466.735717773438	-827.9710083007815	308.0111999511719	1468.942504882813	-891.745544433594	-262.7392578125001	957.2393188476565	-1099.5400390625	-259.6174621582032	994.5122680664065	-874.5625000000002	-446.1626281738282	1042.511596679688	-996.9466552734377	-448.0075988769532	1008.199768066406	-1022.715759277344	-450.1518554687501	1014.572937011719	-964.2960205078127	-313.5198059082032	794.7012329101565	-1169.183227539063	-257.3507385253907	732.3054809570314	-1172.15625	-212.2430114746094	748.9075927734376	-1162.590698242188	-268.0172119140626	672.0523681640626	-1169.93896484375	-240.7064971923829	505.3163146972657	-1132.886108398438	-196.7831268310547	504.0615234375001	-1015.464660644531	-227.9786682128907	328.2677917480469	-1026.756103515625	-250.9095153808594	278.8074645996094	-1095.871215820313	-230.9603881835938	276.7988891601563	-1053.372192382813	-261.0001831054688	207.4021453857422	-1015.751159667969	-330.9720153808594	118.1693954467774	-1053.47119140625	-304.1748352050782	140.2896728515625	-969.0146484375002	-190.5240325927735	65.01487731933595	-980.980163574219	-188.3749694824219	59.45450973510744	-1025.4248046875	-237.230209350586	42.9720802307129	-1070.052124023438	-245.7672576904297	841.8353271484377	-771.5239257812502	-178.4608764648438	839.023864746094	-774.107604980469	-160.9234313964844	863.7075805664065	-785.864685058594	-132.3193664550782	768.9382934570315	-778.1355590820315	-13.02049636840821	685.9525146484376	-800.1569824218752	2.622425317764283	687.7742919921876	-923.2354736328127	95.59497070312501	610.8008422851564	-820.0730590820315	102.5389862060547	511.5608825683595	-772.9241333007815	134.828369140625	537.1758422851564	-794.508239746094	168.6317291259766	503.4087219238282	-828.7440185546877	214.6987762451172	350.7038269042969	-789.1934204101565	220.0162658691407	368.5161132812501	-879.4734497070315	180.3138732910157	286.9943542480469	-832.4815063476565	366.8775329589844	371.7350463867188	-876.0321044921877	372.1979370117188	384.7390747070314	-834.4151000976565	349.5241394042969	345.3785705566407	-771.9451293945315	
